PathFileType	4	(X/Y/Z)	c:/Users/goper/Files/vsCode/490R/osim_files/C12/C12_Slow_05.trc
DataRate	CameraRate	NumFrames	NumMarkers	Units                	OrigDataRate	OrigDataStartFrame	OrigNumFrames
120.00	120.00	10	36	mm	120.0	717	1432
                Frame#	Time	LPSIS			LASIS			LTH1			LTH2			LTH3			LTH4			LLFE			LMFE			LSH1			LSH2			LSH3			LSH4			LLMAL			LMMAL			LCAL			LMTP5			LTOE			LMTP1			RPSIS			RASIS			RTH1			RTH2			RTH3			RTH4			RLFE			RMFE			RSH1			RSH2			RSH3			RSH4			RLMAL			RMMAL			RCAL			RMTP1			RTOE			RMTP5		
		X1	Y1	Z1	X2	Y2	Z2	X3	Y3	Z3	X4	Y4	Z4	X5	Y5	Z5	X6	Y6	Z6	X7	Y7	Z7	X8	Y8	Z8	X9	Y9	Z9	X10	Y10	Z10	X11	Y11	Z11	X12	Y12	Z12	X13	Y13	Z13	X14	Y14	Z14	X15	Y15	Z15	X16	Y16	Z16	X17	Y17	Z17	X18	Y18	Z18	X19	Y19	Z19	X20	Y20	Z20	X21	Y21	Z21	X22	Y22	Z22	X23	Y23	Z23	X24	Y24	Z24	X25	Y25	Z25	X26	Y26	Z26	X27	Y27	Z27	X28	Y28	Z28	X29	Y29	Z29	X30	Y30	Z30	X31	Y31	Z31	X32	Y32	Z32	X33	Y33	Z33	X34	Y34	Z34	X35	Y35	Z35	X36	Y36	Z36

717	5.96667	-34.71910	1079.34033	336.68359	-206.92979	1040.99609	405.51367	-175.69292	763.54053	477.20251	-195.31815	719.87939	476.98898	-233.02577	782.82214	483.17874	-244.15381	739.70551	487.03003	-282.51273	560.76141	461.75958	-306.01053	549.79297	335.36743	-189.36052	513.48547	465.50458	-159.76210	476.84158	471.43497	-234.03218	472.88037	472.31656	-198.67960	441.25580	473.02423	10.58853	237.68385	415.28168	-17.05743	229.38438	341.10202	63.89789	263.33484	365.14691	-30.91290	95.72034	445.46262	-101.56310	85.03426	389.34683	-67.08517	83.61575	342.15634	-31.69582	1077.59399	221.78111	-217.92003	1045.78455	150.31923	-134.44031	754.16028	107.22482	-141.60999	710.14221	116.25883	-197.53247	756.70471	108.65775	-196.03258	709.72449	116.24136	-158.29088	532.94983	163.86726	-158.32011	540.47272	297.35373	-91.24348	437.91446	147.49156	-91.05072	394.22906	143.13405	-153.46542	428.33182	155.06357	-142.67703	387.14728	148.41142	-85.47147	105.59284	202.95493	-101.35391	120.17889	285.51990	-10.10555	73.77194	241.78743	-224.03416	46.10877	289.41656	-266.81314	63.27972	256.10703	-233.01457	38.06334	180.87953
718	5.97500	-43.05240	1080.07996	337.01990	-215.42320	1041.80811	404.78214	-188.14528	764.94940	477.50192	-207.31444	722.41412	477.36700	-244.91707	785.74805	483.08582	-256.21216	742.43597	486.89606	-296.62878	563.78790	460.53073	-318.09076	553.03668	334.51764	-204.60085	512.95422	465.00272	-176.81281	474.89142	470.87228	-250.70090	473.99008	471.28711	-216.60814	441.11996	472.23172	-14.57934	229.86951	415.84882	-42.42073	222.22945	341.60013	40.06274	252.41328	365.50226	-63.03930	90.74930	447.56570	-134.31940	82.92593	391.37186	-99.32911	78.98698	344.33435	-39.81118	1078.35742	222.19917	-225.57452	1046.02734	149.77962	-138.30043	755.48193	106.25581	-146.10768	710.72711	116.18542	-202.67137	756.67456	108.40000	-200.56776	709.69696	115.99258	-160.27545	533.22858	163.72473	-160.91277	540.59705	297.33875	-93.15450	438.57840	147.39081	-92.65244	394.89880	143.03470	-155.30701	428.71548	155.04642	-144.27818	387.57724	148.40524	-85.80347	106.16936	202.97258	-101.57385	120.60358	285.49893	-10.82874	74.24115	241.91269	-224.22717	46.13251	289.40192	-267.08801	63.01656	256.04651	-233.10329	38.01355	180.85504
719	5.98333	-51.30278	1080.66943	337.38013	-223.79300	1042.45764	404.15271	-199.78122	766.53510	477.81677	-219.76118	723.80109	477.87723	-256.17221	788.06854	482.71121	-268.02054	744.64722	486.56348	-310.14377	566.46124	459.21188	-330.60156	555.98761	333.18018	-218.95964	511.55972	464.82739	-192.69244	471.92447	470.87103	-267.36301	475.04651	469.84500	-234.14841	440.62439	471.46729	-40.21031	221.60477	417.05771	-67.80723	214.49644	342.21320	15.87371	241.13974	366.00439	-95.46898	85.73061	449.65344	-166.86064	80.75469	393.28082	-132.01825	74.58777	346.44376	-47.70702	1079.10107	222.69322	-233.46165	1046.42761	149.24538	-143.32399	756.09772	106.18010	-150.69997	711.31659	116.14604	-207.63939	756.62360	108.12691	-205.17706	709.68042	115.84682	-162.30693	533.56195	163.56277	-163.52654	540.70752	297.31079	-95.02386	439.22491	147.29083	-94.39388	395.52353	142.97018	-157.09218	429.09253	155.03720	-145.86183	387.99603	148.42160	-86.10780	106.79286	202.99712	-101.90102	121.07006	285.46991	-11.17988	74.87344	241.95454	-224.36034	46.07210	289.38412	-267.31583	62.75516	256.00977	-233.21547	37.93983	180.83392
720	5.99167	-59.63200	1081.15881	337.83405	-232.32344	1043.08643	403.44638	-211.28551	767.81964	477.98181	-231.38461	725.78961	478.55420	-267.37509	789.95721	482.37427	-280.78458	747.17670	484.52133	-323.72733	568.91846	458.07135	-342.59360	558.58917	331.72369	-233.79523	510.38763	464.41382	-209.21193	469.79642	470.51730	-283.51541	475.58972	468.73694	-251.75224	439.92984	470.51270	-66.29653	213.06071	417.82248	-94.14443	206.91420	342.89670	-9.77334	228.88969	366.79755	-128.49663	80.82048	451.56168	-199.96562	78.88551	395.00562	-165.28900	70.28502	348.39630	-55.86244	1079.47021	223.13585	-241.07338	1046.50586	148.85027	-148.34306	756.64581	106.17248	-155.34862	711.77222	116.17969	-212.89410	756.51471	108.07932	-209.78572	709.60254	115.75367	-164.51117	533.67743	163.57088	-166.03683	540.83582	297.26743	-96.99508	439.80441	147.18648	-96.13306	396.11780	142.88132	-159.06749	429.39746	155.15773	-147.62440	388.35901	148.56036	-86.46533	107.36226	203.02611	-102.32741	121.50511	285.45618	-11.65368	75.42106	242.05698	-224.51782	45.98938	289.34995	-267.51746	62.47070	256.01761	-233.34845	37.82787	180.81636
721	6.00000	-67.93140	1081.44922	338.30383	-240.73273	1043.54333	402.91156	-222.14229	768.86407	477.79999	-242.49977	727.22119	478.44202	-278.44342	791.52246	482.04764	-292.28412	748.77936	483.96701	-336.74670	570.76575	456.42801	-354.25455	560.82410	330.22812	-248.25446	508.93115	463.86444	-225.54596	467.37622	470.08292	-299.43784	475.98367	467.55832	-269.55472	439.02179	469.96558	-92.92979	204.38139	418.71417	-120.70037	199.13370	343.51709	-34.51844	217.47348	367.63992	-162.03784	76.15598	453.34073	-233.22882	77.28657	396.56006	-197.89690	65.85559	350.45828	-63.82740	1079.86841	223.63724	-248.77487	1046.56055	148.52623	-154.37454	756.65997	106.65218	-160.54469	711.90363	116.47324	-217.95515	756.33807	108.02069	-214.48332	709.44342	115.75336	-166.50996	534.04724	163.47314	-168.71112	540.95343	297.21497	-98.90837	440.38342	147.10637	-97.90204	396.70511	142.80348	-160.90916	429.69583	155.18678	-149.27597	388.73883	148.65146	-86.94582	107.94353	203.06540	-102.02615	121.08950	284.99417	-11.89938	76.09675	241.93669	-224.58929	45.87560	289.31796	-267.68176	62.26313	256.01782	-233.46925	37.74791	180.80937
722	6.00833	-76.15776	1081.64099	338.76797	-249.16776	1043.79846	402.54297	-233.05463	769.97833	477.45963	-253.35049	727.77960	478.08676	-288.98138	792.57611	481.43723	-303.47031	750.01807	483.39536	-349.11404	572.30054	454.74597	-365.50192	562.76947	328.58817	-262.56540	507.08331	463.22742	-241.29214	464.87091	469.08655	-314.37735	477.00885	466.96640	-286.54889	437.98871	469.17780	-120.02350	195.55005	419.62808	-147.66658	191.27315	344.38406	-61.37322	204.79675	368.79672	-195.83456	71.66125	454.96777	-266.30737	75.83482	397.74460	-232.45047	62.65380	351.39105	-71.76221	1080.10278	224.17316	-256.46063	1046.49329	148.11784	-159.72191	756.93353	106.95694	-165.51024	711.97302	116.67245	-223.16934	756.03937	108.13044	-219.15227	709.25696	115.82858	-168.54623	534.30280	163.32169	-171.16121	541.13550	297.23511	-100.71140	440.90564	147.12337	-99.55526	397.22165	142.86726	-162.71605	430.02988	155.22066	-151.04807	389.03696	148.69774	-87.32648	108.46838	203.06905	-101.23559	121.22794	285.27115	-12.15943	76.76154	241.94702	-224.71815	45.83752	289.30945	-267.85547	62.08106	256.05072	-233.56950	37.66861	180.78734
723	6.01667	-84.49177	1081.71838	339.33368	-257.67670	1044.02502	402.20380	-244.42245	770.38434	477.55814	-264.69968	728.44379	477.84894	-299.86661	793.58600	481.26776	-314.49445	750.84924	482.69839	-361.01892	573.36737	452.99554	-376.20398	564.33167	326.93182	-276.47870	504.92947	462.43857	-257.20404	461.76938	468.62836	-329.28293	476.91647	465.95392	-303.43011	436.81339	468.25204	-147.55940	186.74931	420.64117	-174.72302	183.63249	345.11636	-87.34626	193.19699	370.05676	-230.04626	67.59406	456.36041	-299.87555	75.16406	398.63892	-266.41132	59.88287	352.64691	-79.72118	1080.22559	224.75497	-264.09967	1046.28931	147.87669	-164.99977	757.09436	107.03478	-169.71123	712.47791	116.30492	-228.30846	755.67487	108.30650	-223.29657	709.13641	115.65541	-170.75237	534.37067	163.38097	-173.44063	541.21497	297.35193	-102.55969	441.40625	147.19267	-101.19202	397.75754	142.90892	-164.49846	430.26160	155.34140	-152.54565	389.35059	148.72112	-87.59174	108.98872	203.14520	-103.38276	123.19884	285.05722	-12.52575	77.39406	242.07861	-224.78615	45.79915	289.27838	-268.16202	62.79963	256.00934	-233.61024	37.62846	180.76326
724	6.02500	-92.82775	1081.58960	339.95050	-266.19250	1044.00476	401.97647	-254.74002	770.18097	477.08667	-275.43619	728.76575	477.24750	-310.33578	794.03998	480.70599	-325.23038	751.43787	481.91452	-372.45343	574.05219	451.17908	-386.38763	565.45044	325.18454	-290.17615	502.34286	461.57278	-272.86115	458.39569	468.13699	-344.78751	476.48553	464.51743	-320.14771	435.53729	467.33228	-175.53880	178.15309	421.72446	-202.53043	176.11932	345.84479	-114.62421	181.17436	371.60236	-265.00327	63.87908	457.61014	-333.29453	74.67760	399.23840	-300.23062	57.25426	353.74750	-87.69804	1080.26074	225.39238	-271.71255	1046.05188	147.62743	-170.14421	757.19849	107.11341	-174.38266	712.57446	116.37215	-233.60580	755.18207	108.63933	-228.05208	708.73230	115.95704	-172.98592	534.37323	163.43050	-176.30019	541.26501	297.28162	-104.29559	441.88947	147.32007	-102.64511	398.21411	143.00743	-166.07607	430.44107	155.36935	-153.97371	389.59442	148.80144	-87.77353	109.45600	203.08995	-103.72851	123.57080	285.13742	-12.69500	77.96463	242.11583	-225.32495	46.10132	289.12015	-268.43307	62.58759	256.29999	-233.62271	37.57228	180.74638
725	6.03333	-101.15134	1081.53625	340.49817	-275.49643	1044.02856	401.77496	-264.21939	769.58246	476.12888	-285.84506	728.64038	476.35864	-320.52448	794.05048	480.03467	-335.67575	751.48480	480.96747	-383.18430	574.29645	449.33856	-396.18521	566.06549	323.35657	-303.66183	499.51288	460.75891	-288.49088	454.74246	467.56931	-359.53433	475.84052	463.14508	-336.77127	434.07620	466.28732	-204.07561	169.80548	422.84839	-229.92014	168.03314	347.01181	-142.58441	169.39362	373.30789	-299.65210	60.78538	458.49307	-366.79208	74.67451	399.36459	-334.31039	55.25076	354.29211	-95.62801	1080.20215	226.05922	-279.30325	1045.49084	147.39996	-175.40367	757.15771	107.22847	-179.19843	712.48944	116.57825	-238.66138	754.59473	108.93282	-232.77798	708.14618	116.37515	-175.30280	534.24207	163.67645	-179.02754	541.20984	297.26715	-106.06233	442.34274	147.49043	-104.17038	398.69556	143.20030	-167.87718	430.51834	155.42702	-155.40863	389.78238	148.89452	-88.05179	109.98143	203.23727	-104.07631	123.48141	285.80499	-13.08865	78.42260	242.22144	-224.70929	45.71634	289.26639	-268.62500	62.46072	256.27173	-233.66257	37.51979	180.72623
726	6.04167	-109.66954	1081.26611	341.19342	-283.78748	1043.59375	401.55423	-273.34430	768.67413	474.93369	-296.06314	728.18835	475.46927	-330.64722	793.66315	479.38458	-345.89575	751.10083	479.93893	-393.57941	574.20996	447.53000	-405.48685	566.27240	321.54956	-316.91525	496.29022	459.82513	-303.95309	450.84613	466.75708	-374.07953	475.23456	460.85089	-353.10876	432.56006	465.28131	-233.07213	161.71631	424.10648	-258.00568	161.35234	347.71033	-171.10454	157.91579	375.24588	-334.48471	58.10871	459.13794	-400.71136	75.54977	398.93121	-368.07657	53.58701	354.65607	-103.70259	1079.92554	226.79839	-286.93954	1044.80896	147.14484	-180.71030	757.04498	107.41930	-184.03999	712.33435	116.84373	-243.90109	753.91766	109.36027	-237.49684	707.48285	116.78780	-177.77385	534.15869	163.85634	-181.79042	540.91125	297.35153	-107.79302	442.67725	147.73758	-105.67924	399.06699	143.43423	-169.54587	430.58115	155.49304	-156.89470	389.89789	149.00104	-88.37701	110.43635	203.37718	-104.66273	124.10750	285.31427	-13.37746	78.90041	242.38939	-224.92946	46.21162	288.55182	-268.78210	62.31647	256.27200	-233.69896	37.49152	180.69987
